<?xml version="1.0" encoding="UTF-8" standalone="no"?>
<svg width="7px" height="222px" viewBox="0 0 7 222" version="1.1" xmlns="http://www.w3.org/2000/svg" xmlns:xlink="http://www.w3.org/1999/xlink">
    <!-- Generator: Sketch 49.1 (51147) - http://www.bohemiancoding.com/sketch -->
    <title>Group 48</title>
    <desc>Created with Sketch.</desc>
    <defs>
        <path d="M3,6.96475635 C1.30385,6.72205091 0,5.26331816 0,3.50007857 C0,1.56703518 1.567,0 3.5,0 C5.433,0 7,1.56703518 7,3.50007857 C7,5.26331816 5.69615,6.72205091 4,6.96475635 C4,160.777454 4,218.457215 4,180.004041 C4,180.004041 3,180.004041 3,180.004041 C3,218.457215 3,160.777454 3,6.96475635 Z" id="path-1"></path>
        <path d="M3,207.9646 C1.3039,207.7219 0,206.2632 0,204.5 C0,202.567 1.567,201 3.5,201 C5.433,201 7,202.567 7,204.5 C7,206.2632 5.6961,207.7219 4,207.9646 L4,220.3355 L5.982,218.3536 C6.1772,218.1583 6.4938,218.1583 6.6891,218.3536 C6.8843,218.5488 6.8843,218.8654 6.6891,219.0607 L3.9745,221.7753 C3.9521,221.8161 3.9237,221.8545 3.8891,221.8891 C3.7878,221.9903 3.654,222.0391 3.5213,222.0353 C3.3887,222.0391 3.2548,221.9903 3.1535,221.8891 C3.119,221.8545 3.0905,221.8161 3.0682,221.7753 L0.3536,219.0607 C0.1583,218.8654 0.1583,218.5488 0.3536,218.3536 C0.5488,218.1583 0.8654,218.1583 1.0607,218.3536 L3,220.2929 L3,207.9646 Z" id="path-3"></path>
    </defs>
    <g id="Page-1" stroke="none" stroke-width="1" fill="none" fill-rule="evenodd">
        <g id="HOW" transform="translate(-41.000000, -329.000000)">
            <g id="Group-3" transform="translate(38.000000, 188.000000)">
                <g id="Group-48" transform="translate(3.000000, 141.000000)">
                    <g id="Group-47">
                        <mask id="mask-2" fill="white">
                            <use xlink:href="#path-1"></use>
                        </mask>
                        <g id="Clip-46"></g>
                        <path d="M3.1897639,179 L41,179 L41,219 L3.00101348,219 L3,219.214776 L3,219 L-17,219 L-17,179 L3,179 L3,7.2947223 C1.303853,7.04060574 0,5.51274841 0,3.66592329 C0,1.64128937 1.567003,0 3.5,0 C5.432997,0 7,1.64128937 7,3.66592329 C7,5.51274841 5.696147,7.04060574 4,7.2947223 L3.1897639,179 Z M3.1897639,179 L3,179 L3,219 L3.00101348,219 L3.1897639,179 Z" id="Combined-Shape" stroke="#FFFFFF" stroke-width="2" mask="url(#mask-2)"></path>
                        <mask id="mask-4" fill="white">
                            <use xlink:href="#path-3"></use>
                        </mask>
                        <g id="Clip-53"></g>
                        <path d="M4,220.33552 L5.981968,218.35355 C6.17723,218.15829 6.493813,218.15829 6.689075,218.35355 C6.884337,218.54882 6.884337,218.8654 6.689075,219.06066 L3.974456,221.77528 C3.952124,221.81612 3.923668,221.85451 3.889087,221.88909 C3.787839,221.99034 3.653973,222.03908 3.521314,222.03533 C3.388656,222.03908 3.254789,221.99034 3.153541,221.88909 C3.118961,221.85451 3.090505,221.81612 3.068173,221.77528 L0.3535534,219.06066 C0.1582912,218.8654 0.1582912,218.54882 0.3535534,218.35355 C0.5488155,218.15829 0.865398,218.15829 1.06066,218.35355 L3,220.29289 L4,220.33552 Z" id="Stroke-52" stroke="#FFFFFF" stroke-width="2" mask="url(#mask-4)"></path>
                    </g>
                    <rect id="Rectangle-5" fill="#FFFFFF" x="3" y="180" width="1" height="42"></rect>
                </g>
            </g>
        </g>
    </g>
</svg>