<?xml version="1.0" encoding="UTF-8" standalone="no"?>
<svg width="7px" height="21px" viewBox="0 0 7 21" version="1.1" xmlns="http://www.w3.org/2000/svg" xmlns:xlink="http://www.w3.org/1999/xlink">
    <!-- Generator: Sketch 49.1 (51147) - http://www.bohemiancoding.com/sketch -->
    <title>Group 41</title>
    <desc>Created with Sketch.</desc>
    <defs>
        <path d="M3,1.9497 L1.0607,3.8891 C0.8654,4.0843 0.5488,4.0843 0.3536,3.8891 C0.1583,3.6938 0.1583,3.3772 0.3536,3.182 L3.0682,0.4674 C3.0905,0.4265 3.119,0.3881 3.1535,0.3536 C3.2548,0.2523 3.3887,0.2036 3.5213,0.2073 C3.654,0.2036 3.7878,0.2523 3.8891,0.3536 C3.9237,0.3881 3.9521,0.4265 3.9745,0.4674 L6.6891,3.182 C6.8843,3.3772 6.8843,3.6938 6.6891,3.8891 C6.4938,4.0843 6.1772,4.0843 5.982,3.8891 L4,1.9071 L4,19.3355 L5.982,17.3536 C6.1772,17.1583 6.4938,17.1583 6.6891,17.3536 C6.8843,17.5488 6.8843,17.8654 6.6891,18.0607 L3.9745,20.7753 C3.9521,20.8161 3.9237,20.8545 3.8891,20.8891 C3.7878,20.9903 3.654,21.0391 3.5213,21.0353 C3.3887,21.0391 3.2548,20.9903 3.1535,20.8891 C3.119,20.8545 3.0905,20.8161 3.0682,20.7753 L0.3536,18.0607 C0.1583,17.8654 0.1583,17.5488 0.3536,17.3536 C0.5488,17.1583 0.8654,17.1583 1.0607,17.3536 L3,19.2929 L3,1.9497 Z" id="path-1"></path>
    </defs>
    <g id="Page-1" stroke="none" stroke-width="1" fill="none" fill-rule="evenodd">
        <g id="HOW" transform="translate(-511.000000, -329.000000)">
            <g id="Group-3" transform="translate(38.000000, 188.000000)">
                <g id="Group-41" transform="translate(473.000000, 141.000000)">
                    <mask id="mask-2" fill="white">
                        <use xlink:href="#path-1"></use>
                    </mask>
                    <g id="Clip-40"></g>
                    <polygon id="Fill-39" fill="#FFFFFF" mask="url(#mask-2)" points="-4.7929 26.0355 11.83551 26.0355 11.83551 -4.79293 -4.7929 -4.79293"></polygon>
                </g>
            </g>
        </g>
    </g>
</svg>