<?xml version="1.0" encoding="UTF-8" standalone="no"?>
<svg width="21px" height="8px" viewBox="0 0 21 8" version="1.1" xmlns="http://www.w3.org/2000/svg" xmlns:xlink="http://www.w3.org/1999/xlink">
    <!-- Generator: Sketch 49.1 (51147) - http://www.bohemiancoding.com/sketch -->
    <title>Group 60</title>
    <desc>Created with Sketch.</desc>
    <defs>
        <path d="M6.9681,4.0391 C6.7255,5.7352 5.2668,7.0391 3.5035,7.0391 C1.5706,7.0391 0.0035,5.4721 0.0035,3.5391 C0.0035,1.6061 1.5706,0.0391 3.5035,0.0391 C5.2668,0.0391 6.7255,1.3429 6.9681,3.0391 L19.3391,3.0391 L17.3571,1.0571 C17.1618,0.8619 17.1618,0.5453 17.3571,0.35 C17.5524,0.1547 17.8689,0.1547 18.0642,0.35 L20.7788,3.0646 C20.8197,3.087 20.8581,3.1154 20.8926,3.15 C20.9939,3.2512 21.0426,3.3851 21.0389,3.5178 C21.0426,3.6504 20.9939,3.7843 20.8926,3.8855 C20.8581,3.9201 20.8197,3.9486 20.7788,3.9709 L18.0642,6.6855 C17.8689,6.8808 17.5524,6.8808 17.3571,6.6855 C17.1618,6.4903 17.1618,6.1737 17.3571,5.9784 L19.2964,4.0391 L6.9681,4.0391 Z" id="path-1"></path>
    </defs>
    <g id="Page-1" stroke="none" stroke-width="1" fill="none" fill-rule="evenodd">
        <g id="HOW" transform="translate(-647.000000, -470.000000)">
            <g id="Group-3" transform="translate(38.000000, 188.000000)">
                <g id="Group-60" transform="translate(609.000000, 282.000000)">
                    <mask id="mask-2" fill="white">
                        <use xlink:href="#path-1"></use>
                    </mask>
                    <g id="Clip-59"></g>
                    <path d="M6.968056,4.0391 C6.725441,5.735247 5.266736,7.0391 3.5035,7.0391 C1.570503,7.0391 0.0035,5.472097 0.0035,3.5391 C0.0035,1.606103 1.570503,0.0391 3.5035,0.0391 C5.266736,0.0391 6.725441,1.342953 6.968056,3.0391 L19.33902,3.0391 L17.35705,1.057132 C17.16179,0.86187 17.16179,0.545287 17.35705,0.350025 C17.55232,0.154763 17.8689,0.154763 18.06416,0.350025 L20.77878,3.064644 C20.81962,3.086976 20.85801,3.115432 20.89259,3.150013 C20.99384,3.251261 21.04258,3.385127 21.03883,3.517786 C21.04258,3.650444 20.99384,3.784311 20.89259,3.885559 C20.85801,3.920139 20.81962,3.948595 20.77878,3.970927 L18.06416,6.6855466 C17.8689,6.8808088 17.55232,6.8808088 17.35705,6.6855466 C17.16179,6.4902845 17.16179,6.173702 17.35705,5.97844 L19.29639,4.0391 L6.968056,4.0391 Z" id="Stroke-58" stroke="#FFFFFF" stroke-width="2" mask="url(#mask-2)"></path>
                </g>
            </g>
        </g>
    </g>
</svg>