<?xml version="1.0" encoding="UTF-8" standalone="no"?>
<svg width="7px" height="21px" viewBox="0 0 7 21" version="1.1" xmlns="http://www.w3.org/2000/svg" xmlns:xlink="http://www.w3.org/1999/xlink">
    <!-- Generator: Sketch 49.1 (51147) - http://www.bohemiancoding.com/sketch -->
    <title>Group 54</title>
    <desc>Created with Sketch.</desc>
    <defs>
        <path d="M3,6.9646 C1.3039,6.7219 0,5.2632 0,3.5 C0,1.567 1.567,0 3.5,0 C5.433,0 7,1.567 7,3.5 C7,5.2632 5.6961,6.7219 4,6.9646 L4,19.3355 L5.982,17.3536 C6.1772,17.1583 6.4938,17.1583 6.6891,17.3536 C6.8843,17.5488 6.8843,17.8654 6.6891,18.0607 L3.9745,20.7753 C3.9521,20.8161 3.9237,20.8545 3.8891,20.8891 C3.7878,20.9903 3.654,21.0391 3.5213,21.0353 C3.3887,21.0391 3.2548,20.9903 3.1535,20.8891 C3.119,20.8545 3.0905,20.8161 3.0682,20.7753 L0.3536,18.0607 C0.1583,17.8654 0.1583,17.5488 0.3536,17.3536 C0.5488,17.1583 0.8654,17.1583 1.0607,17.3536 L3,19.2929 L3,6.9646 Z" id="path-1"></path>
    </defs>
    <g id="Page-1" stroke="none" stroke-width="1" fill="none" fill-rule="evenodd">
        <g id="HOW" transform="translate(-511.000000, -531.000000)">
            <g id="Group-3" transform="translate(38.000000, 188.000000)">
                <g id="Group-54" transform="translate(473.000000, 343.000000)">
                    <mask id="mask-2" fill="white">
                        <use xlink:href="#path-1"></use>
                    </mask>
                    <g id="Clip-53"></g>
                    <path d="M3,6.964556 C1.303853,6.721941 0,5.263236 0,3.5 C0,1.567003 1.567003,0 3.5,0 C5.432997,0 7,1.567003 7,3.5 C7,5.263236 5.696147,6.721941 4,6.964556 L4,19.33552 L5.981968,17.35355 C6.17723,17.15829 6.493813,17.15829 6.689075,17.35355 C6.884337,17.54882 6.884337,17.8654 6.689075,18.06066 L3.974456,20.77528 C3.952124,20.81612 3.923668,20.85451 3.889087,20.88909 C3.787839,20.99034 3.653973,21.03908 3.521314,21.03533 C3.388656,21.03908 3.254789,20.99034 3.153541,20.88909 C3.118961,20.85451 3.090505,20.81612 3.068173,20.77528 L0.3535534,18.06066 C0.1582912,17.8654 0.1582912,17.54882 0.3535534,17.35355 C0.5488155,17.15829 0.865398,17.15829 1.06066,17.35355 L3,19.29289 L3,6.964556 Z" id="Stroke-52" stroke="#FFFFFF" stroke-width="2" mask="url(#mask-2)"></path>
                </g>
            </g>
        </g>
    </g>
</svg>