<?xml version="1.0" encoding="UTF-8" standalone="no"?>
<svg width="77px" height="78px" viewBox="0 0 77 78" version="1.1" xmlns="http://www.w3.org/2000/svg" xmlns:xlink="http://www.w3.org/1999/xlink">
    <!-- Generator: Sketch 49.1 (51147) - http://www.bohemiancoding.com/sketch -->
    <title>TRUE_logo</title>
    <desc>Created with Sketch.</desc>
    <defs></defs>
    <g id="Page-1" stroke="none" stroke-width="1" fill="none" fill-rule="evenodd">
        <g id="PRODUCTS" transform="translate(-828.000000, -303.000000)" fill="#0D2797" fill-rule="nonzero">
            <g id="TRUE_logo" transform="translate(828.000000, 303.000000)">
                <path d="M72.12,56.194 C71.856,54.558 71.974,52.788 71.974,50.961 C71.974,49.201 72.022,47.455 72.022,45.729 C72.023,42.236 72.286,38.756 71.877,35.41 C71.114,29.169 69.136,23.845 66.208,19.616 C63.279,15.385 59.724,11.925 55.21,9.103 C50.949,6.438 45.247,4.458 38.495,4.355 C30.02,4.226 23.07,7.133 18.147,10.896 C17.141,11.665 16.247,12.574 15.289,13.416 C13.374,15.098 11.707,17.027 10.299,19.133 C7.434,23.417 5.07,28.455 4.388,34.734 C3.671,41.34 4.373,48.271 3.856,55.467 C3.475,55.326 3.42,54.866 3.274,54.546 C1.046,49.653 -0.456,42.889 0.125,35.603 C0.691,28.511 3.127,22.474 6.133,17.774 C9.126,13.094 13.2,8.919 18.051,5.856 C22.974,2.748 29.016,0.385 36.268,0.042 C44.4,-0.342 51.25,1.949 56.52,4.887 C59.193,6.377 61.493,8.25 63.739,10.217 C64.821,11.164 65.756,12.363 66.743,13.463 C67.759,14.594 68.649,15.815 69.456,17 C72.769,21.866 75.31,27.927 76.045,35.459 C76.82,43.409 74.997,50.715 72.12,56.194 Z" id="Shape"></path>
                <path d="M63.835,67.337 C63.878,60.743 63.98,54.103 63.98,47.377 C63.98,43.894 64.104,40.654 63.98,37.541 C63.86,34.543 63.142,31.689 62.187,29.208 C60.358,24.452 57.256,20.567 53.418,17.677 C49.686,14.868 44.585,12.764 38.205,12.638 C35.024,12.575 32.004,13.204 29.484,14.092 C26.877,15.009 24.732,16.123 22.798,17.531 C18.922,20.355 15.981,24.319 14.077,29.062 C13.069,31.573 12.451,34.245 12.236,37.395 C12.026,40.48 12.298,43.852 12.091,47.085 C11.885,50.28 12.121,53.578 12.043,56.872 C11.963,60.194 12.093,63.532 11.898,66.755 C11.362,66.719 11.022,66.247 10.735,65.931 C10.097,65.229 9.514,64.569 8.845,63.751 C8.538,63.376 8.095,62.939 8.021,62.54 C7.886,61.812 8.008,60.846 8.021,60.021 C8.114,54.362 8.118,47.931 8.118,42.24 C8.118,38.762 8.216,35.365 8.844,32.502 C10.686,24.118 15.07,17.888 21.344,13.704 C24.584,11.543 27.793,9.803 32.294,8.956 C33.815,8.67 35.45,8.452 37.09,8.374 C40.55,8.211 43.783,8.84 46.537,9.731 C47.951,10.188 49.301,10.59 50.51,11.184 C51.705,11.772 52.801,12.498 53.901,13.17 C58.482,15.97 61.734,19.693 64.318,24.362 C66.235,27.825 67.69,31.983 67.952,36.959 C68.039,38.633 68,40.403 68,42.288 C68,48.958 67.943,56.442 67.854,63.218 C67.381,64.118 66.61,64.719 66.013,65.495 C65.69,65.829 65.345,66.211 64.995,66.561 C64.684,66.876 64.322,67.349 63.835,67.337 Z" id="Shape"></path>
                <path d="M55.793,73.199 C55.689,70.364 55.89,67.508 55.89,64.624 C55.89,58.782 55.987,52.886 55.987,47.086 C55.987,44.173 56.149,41.263 56.035,38.413 C55.816,32.944 53.638,28.991 50.705,26.058 C47.709,23.062 44.039,20.92 38.399,20.681 C35.684,20.566 33.105,21.176 31.035,22.086 C28.891,23.029 27.264,24.217 25.754,25.672 C22.786,28.531 20.46,32.444 20.231,37.833 C19.994,43.414 20.086,49.342 20.086,55.274 C20.086,61.16 19.969,67.07 19.892,72.764 C18.992,72.624 18.52,72.161 17.809,71.698 C17.268,71.346 16.169,70.876 15.968,70.293 C15.799,69.801 15.933,68.771 15.968,68.016 C16.076,65.688 15.968,63.164 15.968,60.942 C15.968,54.351 16.113,48.645 16.113,42.338 C16.113,39.099 16.183,36.175 16.791,33.617 C18.517,26.362 23.25,20.92 29.629,18.21 C30.783,17.72 31.959,17.426 33.215,17.096 C40.52,15.179 47.866,18.157 51.868,21.505 C55.367,24.432 58.041,28.346 59.329,33.375 C60.025,36.094 60.017,39.036 60.104,42.193 C60.191,45.325 60.007,48.582 60.007,51.737 C60.007,57.968 59.922,64.61 59.813,70.729 C59.328,71.322 58.638,71.73 57.972,72.134 C57.321,72.529 56.621,73.012 55.793,73.199 Z" id="Shape"></path>
                <path d="M47.75,76.445 C47.686,69.968 47.896,63.611 47.896,56.872 C47.896,53.593 48.09,50.297 47.993,46.891 C47.901,43.674 48.356,40.08 47.799,37.056 C47.337,34.545 45.973,32.469 44.262,31.145 C42.523,29.8 40.088,28.646 37.14,28.965 C34.409,29.26 32.368,30.461 30.842,32.114 C29.327,33.755 28.335,35.987 28.226,38.897 C28.112,41.942 28.266,45.048 28.129,48.15 C27.992,51.257 28.08,54.403 28.081,57.501 C28.081,63.794 28.129,70.009 27.838,76.106 C26.464,76.002 25.044,75.408 23.962,74.749 C23.949,69.644 24.011,64.391 24.011,59.101 C24.011,53.821 24.246,48.574 24.156,43.452 C24.108,40.697 23.959,38.166 24.447,35.942 C25.379,31.69 27.729,28.57 31.084,26.591 C32.748,25.61 34.915,24.781 37.334,24.653 C39.99,24.511 42.336,25.202 44.165,26.106 C46.045,27.036 47.556,28.316 48.768,29.788 C49.986,31.268 51.079,33.08 51.626,35.214 C52.184,37.389 52.11,40.114 52.11,43.014 C52.11,48.361 51.964,53.861 51.964,59.341 C51.964,64.759 51.942,70.149 51.673,75.183 C50.589,75.797 49.11,76.269 47.75,76.445 Z" id="Shape"></path>
                <path d="M43.826,77.269 C42.812,77.619 41.098,77.762 39.902,77.608 C39.873,74.478 39.932,71.326 39.95,67.918 C39.992,60.084 40.144,51.433 40.144,43.5 C40.144,41.933 40.408,39.807 40.047,38.606 C39.816,37.836 39.106,36.968 38.254,36.911 C37.206,36.84 36.426,37.589 36.171,38.268 C35.95,38.855 35.995,39.679 35.977,40.497 C35.923,42.876 36.009,45.758 35.929,47.91 C35.675,54.693 36.129,61.361 35.88,68.016 C35.789,70.457 35.822,72.736 35.783,75.283 C35.771,76.06 35.809,76.874 35.589,77.609 C34.23,77.673 32.75,77.446 31.665,77.076 C31.539,73.522 31.762,69.602 31.762,65.739 C31.762,57.987 31.859,50.048 31.859,42.29 C31.859,40.254 31.688,38.394 32.198,36.912 C33.009,34.556 34.876,32.788 37.77,32.552 C41.034,32.285 43.774,35.082 44.213,37.736 C44.457,39.208 44.325,40.993 44.262,42.678 C43.845,53.804 44.493,66.105 43.826,77.269 Z" id="Shape"></path>
            </g>
        </g>
    </g>
</svg>